# xmcd
#
# Track frame offsets:
#	150
#	18343
#	33804
#	52045
#	69645
#	87492
#	104395
#	120765
#	137184
#	153681
#	169438
#	185665
#	200951
#	217978
#	233999
#	249442
#	266583
#	282676
#	299963
#
# Disc length: 4177 seconds
#
# Revision: 1
# Processed by: cddbd v1.5.2PL0 Copyright (c) Steve Scherf et al.
# Submitted via: audiograbber 1.83.01
#
DISCID=32104f13
DTITLE=Various Artist - Hott Country 156
DYEAR=2009
DGENRE=Country
TTITLE0=Rascal Flatts - Here Comes Goodbye
TTITLE1=Zac Brown Band - Wharever It Is
TTITLE2=Keith Anderson - She Could've Been Mine
TTITLE3=Carrie Underwood - I Told You So ( Radio Edit )
TTITLE4=Chuck Wills - Man Of The House
TTITLE5=Lady Antebellum - I Run To You
TTITLE6=Gord Bamford - Little Guy
TTITLE7=Craig Morgan - God Must Really Love You
TTITLE8=Johnny Reid - A Woman Like You
TTITLE9=Montgomery Gentry - One In Every Crowd
TTITLE10=Aaron Lines - When We Make Love
TTITLE11=Tent Tomlinson - That's How It Still Oughta Be
TTITLE12=George Canyon - All Or Nothing
TTITLE13=James Otto - These Are The Good Old Days
TTITLE14=Danielle Peck - Can't Behave
TTITLE15=John Rich - Another You
TTITLE16=Rick Tippe - Last Call
TTITLE17=Deric Ruttan - California Plates
TTITLE18=Loretta Lynn - Coal Miner's Daughter (1970 )
EXTD=Feburary 2009
EXTT0=
EXTT1=
EXTT2=
EXTT3=
EXTT4=
EXTT5=
EXTT6=
EXTT7=
EXTT8=
EXTT9=
EXTT10=
EXTT11=
EXTT12=
EXTT13=
EXTT14=
EXTT15=
EXTT16=
EXTT17=
EXTT18=
PLAYORDER=
